<svg xmlns="http://www.w3.org/2000/svg" xmlns:xlink="http://www.w3.org/1999/xlink" viewBox="0,0,256,256" width="48px" height="48px"><g fill="none" fill-rule="nonzero" stroke="none" stroke-width="none" stroke-linecap="none" stroke-linejoin="none" stroke-miterlimit="none" stroke-dasharray="" stroke-dashoffset="0" font-family="none" font-weight="none" font-size="none" text-anchor="none" style="mix-blend-mode: normal"><g transform="scale(5.33333,5.33333)"><path d="M16.5,34.5c-2.2,0 -4,1.8 -4,4c0,2.2 1.8,4 4,4c2.2,0 4,-1.8 4,-4c0,-2.2 -1.8,-4 -4,-4z" fill="#b2d0ff" stroke="none" stroke-width="1" stroke-linecap="butt" stroke-linejoin="miter" stroke-miterlimit="10"></path><path d="M39.5,34.5c-2.2,0 -4,1.8 -4,4c0,2.2 1.8,4 4,4c2.2,0 4,-1.8 4,-4c0,-2.2 -1.8,-4 -4,-4z" fill="#b2d0ff" stroke="none" stroke-width="1" stroke-linecap="butt" stroke-linejoin="miter" stroke-miterlimit="10"></path><path d="M12.2,39h-0.9c-2.4,0 -4.3,-1.9 -4.3,-4.3v-18.6c0,-1.7 1.4,-3.1 3.1,-3.1h21.9c1.7,0 3.1,1.4 3.1,3.1v22.9h-14.6z" fill="#b2d0ff" stroke="none" stroke-width="1" stroke-linecap="butt" stroke-linejoin="miter" stroke-miterlimit="10"></path><path d="M34,39v-19h8c1.2,0 2.3,0.7 2.8,1.8l2.9,6.6c0.2,0.4 0.3,0.8 0.3,1.3v6.3c0,1.7 -1.4,3.1 -3.1,3.1h-11.9" fill="#b2d0ff" stroke="none" stroke-width="1" stroke-linecap="butt" stroke-linejoin="miter" stroke-miterlimit="10"></path><path d="M30.5,34.5h-8.5" fill="none" stroke="#0a46a5" stroke-width="3" stroke-linecap="round" stroke-linejoin="round" stroke-miterlimit="10"></path><path d="M3.5,19.3v-6.8c0,-1.7 1.3,-3 3,-3h21c1.7,0 3,1.3 3,3v20.3" fill="none" stroke="#0a46a5" stroke-width="3" stroke-linecap="round" stroke-linejoin="round" stroke-miterlimit="10"></path><path d="M8.5,34.5h-2c-1.7,0 -3,-1.3 -3,-3v-6.5" fill="none" stroke="#0a46a5" stroke-width="3" stroke-linecap="round" stroke-linejoin="round" stroke-miterlimit="10"></path><path d="M30.5,15.5h8c1.2,0 2.3,0.7 2.7,1.8l3,6.6c0.2,0.4 0.3,0.8 0.3,1.2v6.4c0,1.7 -1.3,3 -3,3h-2" fill="none" stroke="#0a46a5" stroke-width="3" stroke-linecap="butt" stroke-linejoin="round" stroke-miterlimit="10"></path><path d="M12.5,30.5c-2.2,0 -4,1.8 -4,4c0,2.2 1.8,4 4,4c2.2,0 4,-1.8 4,-4c0,-2.2 -1.8,-4 -4,-4z" fill="none" stroke="#0a46a5" stroke-width="3" stroke-linecap="butt" stroke-linejoin="miter" stroke-miterlimit="20"></path><path d="M35.5,30.5c-2.2,0 -4,1.8 -4,4c0,2.2 1.8,4 4,4c2.2,0 4,-1.8 4,-4c0,-2.2 -1.8,-4 -4,-4z" fill="none" stroke="#0a46a5" stroke-width="3" stroke-linecap="butt" stroke-linejoin="miter" stroke-miterlimit="20"></path><path d="M35.2,23.5h8.3" fill="none" stroke="#0a46a5" stroke-width="3" stroke-linecap="round" stroke-linejoin="round" stroke-miterlimit="10"></path></g></g></svg>