<svg xmlns="http://www.w3.org/2000/svg" xmlns:xlink="http://www.w3.org/1999/xlink" viewBox="0,0,256,256" width="48px" height="48px"><g fill="none" fill-rule="nonzero" stroke="none" stroke-width="none" stroke-linecap="none" stroke-linejoin="none" stroke-miterlimit="10" stroke-dasharray="" stroke-dashoffset="0" font-family="none" font-weight="none" font-size="none" text-anchor="none" style="mix-blend-mode: normal"><g transform="scale(5.33333,5.33333)"><path d="M14.3,10.8c-2,0.6 -3.5,2.2 -4,4.1c-1.3,4.9 0.2,11 4.4,18.2c4.2,7.1 8.8,11.4 13.8,12.8c2,0.5 4.2,0 5.7,-1.4l1.8,-1.6c1.4,-1.3 1.6,-3.5 0.5,-5.1l-2.5,-3.4c-1,-1.3 -2.7,-1.9 -4.4,-1.4l-4,1.2c-1,0.3 -1.9,-0.5 -2.3,-0.8c-0.8,-0.7 -1.7,-1.9 -2.7,-3.5c-2.1,-3.5 -1.9,-4.8 -1.9,-5.3c0.1,-0.5 0.3,-0.9 0.6,-1.2l3,-2.7c1.2,-1.1 1.6,-2.9 0.9,-4.4l-1.8,-3.9c-0.8,-1.8 -2.9,-2.7 -4.8,-2.1z" fill="#f0ea99" stroke="none" stroke-width="1" stroke-linecap="butt" stroke-linejoin="miter"></path><path d="M6.1,19.3c0.8,3 2.2,6.4 4.3,9.9c4.3,7.3 9.1,11.7 14.2,13.1c2,0.6 4.3,0 5.8,-1.4l1.8,-1.7c1.5,-1.4 1.7,-3.6 0.5,-5.2l-2.6,-3.5c-1,-1.4 -2.8,-2 -4.5,-1.5l-4.1,1.2c-1.1,0.3 -2,-0.5 -2.3,-0.8c-0.8,-0.7 -1.8,-2 -2.8,-3.6c-2.1,-3.6 -2,-4.9 -1.9,-5.4c0.1,-0.5 0.3,-0.9 0.6,-1.2l3,-2.8c1.3,-1.2 1.6,-3 0.9,-4.5l-1.8,-4c-0.8,-1.8 -2.9,-2.7 -4.9,-2.2l-2.4,0.7c-1.8,0.6 -3.4,2.2 -3.9,4.2" fill="none" stroke="#161400" stroke-width="3" stroke-linecap="round" stroke-linejoin="round"></path><path d="M42.5,20.5c0,-8.3 -6.7,-15 -15,-15" fill="none" stroke="#161400" stroke-width="3" stroke-linecap="round" stroke-linejoin="round"></path><path d="M29.4,11.7c-0.6,-0.1 -1.2,-0.2 -1.9,-0.2" fill="none" stroke="#161400" stroke-width="3" stroke-linecap="round" stroke-linejoin="round"></path><path d="M36.5,20.5c0,-2.4 -0.9,-4.5 -2.4,-6.1" fill="none" stroke="#161400" stroke-width="3" stroke-linecap="round" stroke-linejoin="round"></path><path d="M30.5,20.5c0,-1.7 -1.3,-3 -3,-3" fill="none" stroke="#161400" stroke-width="3" stroke-linecap="round" stroke-linejoin="round"></path></g></g></svg>