<svg xmlns="http://www.w3.org/2000/svg" xmlns:xlink="http://www.w3.org/1999/xlink" viewBox="0,0,256,256" width="48px" height="48px"><g fill="none" fill-rule="nonzero" stroke="none" stroke-width="none" stroke-linecap="none" stroke-linejoin="none" stroke-miterlimit="10" stroke-dasharray="" stroke-dashoffset="0" font-family="none" font-weight="none" font-size="none" text-anchor="none" style="mix-blend-mode: normal"><g transform="scale(5.33333,5.33333)"><path d="M42.061,44h-28.122c-1.071,0 -1.939,-0.868 -1.939,-1.939v-28.122c0,-1.071 0.868,-1.939 1.939,-1.939h28.121c1.072,0 1.94,0.868 1.94,1.939v28.121c0,1.072 -0.868,1.94 -1.939,1.94z" fill="#cdffbc" stroke="none" stroke-width="1" stroke-linecap="butt" stroke-linejoin="miter"></path><path d="M34.234,40.5h4.266c1.105,0 2,-0.895 2,-2v-29c0,-1.105 -0.895,-2 -2,-2h-24.436" fill="none" stroke="#68bf4a" stroke-width="3" stroke-linecap="round" stroke-linejoin="round"></path><path d="M7.5,33.452v5.048c0,1.105 0.895,2 2,2h8.051" fill="none" stroke="#68bf4a" stroke-width="3" stroke-linecap="round" stroke-linejoin="round"></path><path d="M18.257,19.177l-9.022,-9.793c-0.617,-0.67 -1.735,-0.233 -1.735,0.677v15.487c0,0.275 0.113,0.537 0.312,0.726l7.388,6.996" fill="none" stroke="#68bf4a" stroke-width="3" stroke-linecap="round" stroke-linejoin="round"></path><path d="M25.323,26.846l-3.519,-3.819" fill="none" stroke="#68bf4a" stroke-width="3" stroke-linecap="round" stroke-linejoin="round"></path><path d="M20.5,7.5v6c0,0.552 0.448,1 1,1h5c0.552,0 1,-0.448 1,-1v-6" fill="none" stroke="#68bf4a" stroke-width="3" stroke-linecap="round" stroke-linejoin="round"></path><path d="M34.087,31.637l-8.764,-4.791l-10.006,6.589l2.754,8.709c0.262,0.829 1.03,1.394 1.9,1.397l6.661,0.022c1.43,0.005 2.457,-1.376 2.04,-2.745l-1.682,-5.521l3.444,0.995c1.808,0.522 3.725,-0.356 4.511,-2.066v0c0.438,-0.954 0.063,-2.085 -0.858,-2.589z" fill="none" stroke="#68bf4a" stroke-width="3" stroke-linecap="round" stroke-linejoin="round"></path></g></g></svg>