<svg xmlns="http://www.w3.org/2000/svg" xmlns:xlink="http://www.w3.org/1999/xlink" viewBox="0,0,256,256" width="48px" height="48px"><g fill="none" fill-rule="nonzero" stroke="none" stroke-width="none" stroke-linecap="none" stroke-linejoin="none" stroke-miterlimit="10" stroke-dasharray="" stroke-dashoffset="0" font-family="none" font-weight="none" font-size="none" text-anchor="none" style="mix-blend-mode: normal"><g transform="scale(5.33333,5.33333)"><path d="M19.932,36.415l-3.347,-3.347c-3.371,-3.371 -3.371,-8.837 0,-12.209l6.623,-6.623c0.391,-0.391 1.024,-0.391 1.414,0l14.142,14.142c0.391,0.391 0.391,1.024 0,1.414l-6.623,6.623c-3.371,3.372 -8.838,3.372 -12.209,0z" fill="#b2d0ff" stroke="none" stroke-width="1" stroke-linecap="butt" stroke-linejoin="miter"></path><path d="M33.804,21.903l5.879,-5.879" fill="none" stroke="#0a46a5" stroke-width="3" stroke-linecap="round" stroke-linejoin="round"></path><path d="M23.097,11.196l5.879,-5.879" fill="none" stroke="#0a46a5" stroke-width="3" stroke-linecap="round" stroke-linejoin="round"></path><circle cx="25.597" cy="27.696" r="2" fill="#0a46a5" stroke="none" stroke-width="1" stroke-linecap="butt" stroke-linejoin="miter"></circle><circle cx="18.011" cy="20.11" r="2" fill="#0a46a5" stroke="none" stroke-width="1" stroke-linecap="butt" stroke-linejoin="miter"></circle><path d="M15.403,14.041l4.512,-4.513" fill="none" stroke="#0a46a5" stroke-width="3" stroke-linecap="round" stroke-linejoin="round"></path><path d="M31.47,29.087l-3.329,3.329c-3.371,3.371 -8.837,3.371 -12.209,0l-3.347,-3.347c-2.756,-2.756 -3.259,-6.911 -1.51,-10.178" fill="none" stroke="#0a46a5" stroke-width="3" stroke-linecap="round" stroke-linejoin="round"></path><path d="M9.196,35.804v0c-1.172,-1.172 -1.172,-3.071 0,-4.243l2.941,-2.941l4.243,4.243l-2.941,2.941c-1.172,1.172 -3.072,1.172 -4.243,0z" fill="none" stroke="#0a46a5" stroke-width="3" stroke-linecap="round" stroke-linejoin="round"></path><path d="M18.855,8.468l17.677,17.677" fill="none" stroke="#0a46a5" stroke-width="3" stroke-linecap="round" stroke-linejoin="round"></path><path d="M9.196,35.804l-1.297,1.297c-1.689,1.689 -1.689,4.428 0,6.117l2.931,2.931" fill="none" stroke="#0a46a5" stroke-width="3" stroke-linecap="round" stroke-linejoin="round"></path></g></g></svg>