<svg xmlns="http://www.w3.org/2000/svg" xmlns:xlink="http://www.w3.org/1999/xlink" viewBox="0,0,256,256" width="48px" height="48px"><g fill="none" fill-rule="nonzero" stroke="none" stroke-width="none" stroke-linecap="none" stroke-linejoin="none" stroke-miterlimit="none" stroke-dasharray="" stroke-dashoffset="0" font-family="none" font-weight="none" font-size="none" text-anchor="none" style="mix-blend-mode: normal"><g transform="scale(5.33333,5.33333)"><path d="M20,36.957v-21.914c0,-0.576 0.478,-1.043 1.067,-1.043h11.733c1.767,0 3.2,1.402 3.2,3.13v19.826c0,0.577 -0.478,1.044 -1.067,1.044h-13.866c-0.589,0 -1.067,-0.467 -1.067,-1.043z" fill="#b2d0ff" stroke="none" stroke-width="1" stroke-linecap="butt" stroke-linejoin="miter" stroke-miterlimit="10"></path><path d="M33.074,33.5h-16.574" fill="none" stroke="#0a46a5" stroke-width="3" stroke-linecap="round" stroke-linejoin="round" stroke-miterlimit="10"></path><path d="M16.5,10.5h12c1.657,0 3,1.343 3,3v13.904" fill="none" stroke="#0a46a5" stroke-width="3" stroke-linecap="round" stroke-linejoin="round" stroke-miterlimit="10"></path><path d="M3.5,14.5v-1c0,-1.657 1.343,-3 3,-3" fill="none" stroke="#0a46a5" stroke-width="3" stroke-linecap="round" stroke-linejoin="round" stroke-miterlimit="10"></path><path d="M8.5,33.5h-2c-1.657,0 -3,-1.343 -3,-3v-1" fill="none" stroke="#0a46a5" stroke-width="3" stroke-linecap="round" stroke-linejoin="round" stroke-miterlimit="10"></path><path d="M16.5,12.872v-2.372" fill="none" stroke="#0a46a5" stroke-width="3" stroke-linecap="round" stroke-linejoin="round" stroke-miterlimit="10"></path><path d="M16.5,33.5v-14.548" fill="none" stroke="#0a46a5" stroke-width="3" stroke-linecap="round" stroke-linejoin="round" stroke-miterlimit="10"></path><path d="M35.17,14.5h3.38c1.186,0 2.26,0.698 2.741,1.782l2.95,6.637c0.17,0.384 0.259,0.799 0.259,1.218v6.363c0,1.657 -1.343,3 -3,3v0" fill="none" stroke="#0a46a5" stroke-width="3" stroke-linecap="round" stroke-linejoin="round" stroke-miterlimit="10"></path><path d="M12.5,29.5c-2.208,0 -4,1.792 -4,4c0,2.208 1.792,4 4,4c2.208,0 4,-1.792 4,-4c0,-2.208 -1.792,-4 -4,-4z" fill="none" stroke="#0a46a5" stroke-width="3" stroke-linecap="butt" stroke-linejoin="miter" stroke-miterlimit="20"></path><path d="M37.5,29.5c-2.208,0 -4,1.792 -4,4c0,2.208 1.792,4 4,4c2.208,0 4,-1.792 4,-4c0,-2.208 -1.792,-4 -4,-4z" fill="none" stroke="#0a46a5" stroke-width="3" stroke-linecap="butt" stroke-linejoin="miter" stroke-miterlimit="20"></path><path d="M36.489,22.5h7.011" fill="none" stroke="#0a46a5" stroke-width="3" stroke-linecap="round" stroke-linejoin="round" stroke-miterlimit="10"></path><path d="M21,22.5l2,2l4,-4" fill="none" stroke="#0a46a5" stroke-width="3" stroke-linecap="round" stroke-linejoin="round" stroke-miterlimit="10"></path><circle cx="11.5" cy="10.5" r="1.5" fill="#0a46a5" stroke="none" stroke-width="1" stroke-linecap="butt" stroke-linejoin="miter" stroke-miterlimit="10"></circle><circle cx="3.5" cy="19.5" r="1.5" fill="#0a46a5" stroke="none" stroke-width="1" stroke-linecap="butt" stroke-linejoin="miter" stroke-miterlimit="10"></circle><circle cx="3.5" cy="24.5" r="1.5" fill="#0a46a5" stroke="none" stroke-width="1" stroke-linecap="butt" stroke-linejoin="miter" stroke-miterlimit="10"></circle></g></g></svg>