<svg xmlns="http://www.w3.org/2000/svg" xmlns:xlink="http://www.w3.org/1999/xlink" viewBox="0,0,256,256" width="48px" height="48px"><g fill="none" fill-rule="nonzero" stroke="none" stroke-width="none" stroke-linecap="none" stroke-linejoin="none" stroke-miterlimit="10" stroke-dasharray="" stroke-dashoffset="0" font-family="none" font-weight="none" font-size="none" text-anchor="none" style="mix-blend-mode: normal"><g transform="scale(5.33333,5.33333)"><path d="M13.838,38h-1.968c-1.585,0 -2.87,-1.285 -2.87,-2.87v-6.745v-5.769v-6.746c0,-1.585 1.285,-2.87 2.87,-2.87h23.409c0.854,0 1.613,0.385 2.182,1.058l7.874,9.423c0.475,0.481 0.665,1.154 0.665,1.827v9.822c0,1.585 -1.285,2.87 -2.87,2.87h-1.589z" fill="#b2d0ff" stroke="none" stroke-width="1" stroke-linecap="butt" stroke-linejoin="miter"></path><path d="M29.8,34.5h-12.3" fill="none" stroke="#0a46a5" stroke-width="3" stroke-linecap="round" stroke-linejoin="round"></path><path d="M7.5,8.5h24.7c0.9,0 1.7,0.4 2.3,1.1l8.3,9.8c0.5,0.5 0.7,1.2 0.7,1.9v10.2c0,1.7 -1.3,3 -3,3h-1.7" fill="none" stroke="#0a46a5" stroke-width="3" stroke-linecap="round" stroke-linejoin="round"></path><path d="M9.6,34.5h-2.1c-1.7,0 -3,-1.3 -3,-3h-2.543" fill="none" stroke="#0a46a5" stroke-width="3" stroke-linecap="round" stroke-linejoin="round"></path><path d="M13.5,39.5c-2.209,0 -4,-1.791 -4,-4c0,-2.209 1.791,-4 4,-4c2.209,0 4,1.791 4,4" fill="none" stroke="#0a46a5" stroke-width="3" stroke-linecap="round" stroke-linejoin="round"></path><path d="M38.009,33.58c1.061,1.938 0.349,4.369 -1.589,5.429c-1.938,1.061 -4.369,0.349 -5.429,-1.589c-1.061,-1.938 -0.349,-4.369 1.589,-5.429" fill="none" stroke="#0a46a5" stroke-width="3" stroke-linecap="round" stroke-linejoin="round"></path><path d="M38.2,21.5h-5.7c-1.1,0 -2,-0.9 -2,-2v-6" fill="none" stroke="#0a46a5" stroke-width="3" stroke-linecap="round" stroke-linejoin="round"></path><path d="M9,15.745h-5.043" fill="none" stroke="#0a46a5" stroke-width="3" stroke-linecap="round" stroke-linejoin="round"></path><path d="M6,23.745h-4.043" fill="none" stroke="#0a46a5" stroke-width="3" stroke-linecap="round" stroke-linejoin="round"></path></g></g></svg>