<svg xmlns="http://www.w3.org/2000/svg" xmlns:xlink="http://www.w3.org/1999/xlink" viewBox="0,0,256,256" width="48px" height="48px"><g fill="none" fill-rule="nonzero" stroke="none" stroke-width="none" stroke-linecap="none" stroke-linejoin="none" stroke-miterlimit="10" stroke-dasharray="" stroke-dashoffset="0" font-family="none" font-weight="none" font-size="none" text-anchor="none" style="mix-blend-mode: normal"><g transform="scale(5.33333,5.33333)"><path d="M41.88,35.9h-19.76c-1.723,0 -3.12,-1.397 -3.12,-3.12v-14.56c0,-1.723 1.397,-3.12 3.12,-3.12h19.76c1.723,0 3.12,1.397 3.12,3.12v14.56c0,1.723 -1.397,3.12 -3.12,3.12z" fill="#f0ea99" stroke="none" stroke-width="1" stroke-linecap="butt" stroke-linejoin="miter"></path><path d="M4.5,8.5v0c2.761,0 5,2.239 5,5v16c0,4.418 3.582,8 8,8h26" fill="none" stroke="#161400" stroke-width="3" stroke-linecap="round" stroke-linejoin="round"></path><circle cx="20.5" cy="40.5" r="2.5" fill="#161400" stroke="none" stroke-width="1" stroke-linecap="butt" stroke-linejoin="miter"></circle><circle cx="37.5" cy="40.5" r="2.5" fill="#161400" stroke="none" stroke-width="1" stroke-linecap="butt" stroke-linejoin="miter"></circle><path d="M40.5,28.5c0,1.657 -1.343,3 -3,3h-19c-1.657,0 -3,-1.343 -3,-3v-5.5" fill="none" stroke="#161400" stroke-width="3" stroke-linecap="round" stroke-linejoin="round"></path><path d="M15.5,15.128v-0.628c0,-1.657 1.343,-3 3,-3h19c1.657,0 3,1.343 3,3v7.138" fill="none" stroke="#161400" stroke-width="3" stroke-linecap="round" stroke-linejoin="round"></path><path d="M24.5,17.5h7" fill="none" stroke="#161400" stroke-width="3" stroke-linecap="round" stroke-linejoin="round"></path></g></g></svg>