<svg xmlns="http://www.w3.org/2000/svg" xmlns:xlink="http://www.w3.org/1999/xlink" viewBox="0,0,256,256" width="48px" height="48px"><g fill="none" fill-rule="nonzero" stroke="none" stroke-width="none" stroke-linecap="none" stroke-linejoin="none" stroke-miterlimit="10" stroke-dasharray="" stroke-dashoffset="0" font-family="none" font-weight="none" font-size="none" text-anchor="none" style="mix-blend-mode: normal"><g transform="scale(5.33333,5.33333)"><path d="M41.5,26.9c0,0 0,-0.4 0,-2.4c0,-1.9 -0.7,-3.8 -1,-4.6c0.3,-0.1 0.7,-0.2 0.9,-0.2c0.9,-0.3 1.4,-1.3 1,-2.2c-2.3,-4.7 -7.1,-8 -13.8,-8c-9,0 -14,5 -14,13v4.4c-1.2,0.6 -2,1.7 -2,3.1c0,1.9 1.6,3.5 3.5,3.5c0,0 0,0 0.1,0c1.6,7.5 6.3,13 11.9,13c5.6,0 10.4,-5.5 11.9,-13c0,0 0,0 0.1,0c1.9,0 3.5,-1.6 3.5,-3.5c-0.1,-1.4 -0.9,-2.6 -2.1,-3.1z" fill="#f0ea99" stroke="none" stroke-width="1" stroke-linecap="butt" stroke-linejoin="miter"></path><circle cx="19" cy="26" r="2" fill="#161400" stroke="none" stroke-width="1" stroke-linecap="butt" stroke-linejoin="miter"></circle><circle cx="29" cy="26" r="2" fill="#161400" stroke="none" stroke-width="1" stroke-linecap="butt" stroke-linejoin="miter"></circle><path d="M16.5,16.5c1.9,-1.5 2.5,-3 2.5,-3c0,0 3,3 11,3c3.3,0 6,-0.5 7.4,-0.9c0.9,-0.3 1.4,-1.3 1,-2.2c-2.3,-4.7 -7.1,-8 -13.8,-8c-9,0 -14,5 -14,13v4.4c-1.2,0.6 -2,1.7 -2,3.1c0,1.9 1.6,3.5 3.5,3.5c0,0 0,0 0.1,0c1.6,7.5 6.3,13 11.9,13" fill="none" stroke="#161400" stroke-width="3" stroke-linecap="round" stroke-linejoin="round"></path><path d="M29,36.5h2.5c3.3,0 6,-2.7 6,-6c0,0 0,-5.1 0,-8" fill="none" stroke="#161400" stroke-width="3" stroke-linecap="round" stroke-linejoin="round"></path><path d="M37.5,21h1.5c2.2,0 4,1.8 4,4v2c0,2.2 -1.8,4 -4,4h-1.5" fill="#161400" stroke="none" stroke-width="1" stroke-linecap="butt" stroke-linejoin="miter"></path><circle cx="26.5" cy="36.5" r="2.5" fill="#161400" stroke="none" stroke-width="1" stroke-linecap="butt" stroke-linejoin="miter"></circle></g></g></svg>