<svg xmlns="http://www.w3.org/2000/svg" xmlns:xlink="http://www.w3.org/1999/xlink" viewBox="0,0,256,256" width="48px" height="48px"><g fill="none" fill-rule="nonzero" stroke="none" stroke-width="none" stroke-linecap="none" stroke-linejoin="none" stroke-miterlimit="10" stroke-dasharray="" stroke-dashoffset="0" font-family="none" font-weight="none" font-size="none" text-anchor="none" style="mix-blend-mode: normal"><g transform="scale(5.33333,5.33333)"><circle cx="28" cy="28" r="17.969" fill="#cdffbc" stroke="none" stroke-width="1" stroke-linecap="butt" stroke-linejoin="miter"></circle><path d="M13.549,8.733c2.974,-2.04 6.573,-3.233 10.451,-3.233c9.377,0 17.125,6.976 18.335,16.022" fill="none" stroke="#68bf4a" stroke-width="3" stroke-linecap="round" stroke-linejoin="round"></path><path d="M20.789,42.222c-8.687,-1.52 -15.289,-9.1 -15.289,-18.222c0,-3.327 0.878,-6.448 2.415,-9.145" fill="none" stroke="#68bf4a" stroke-width="3" stroke-linecap="round" stroke-linejoin="round"></path><path d="M24.5,13.5v11l-5,5" fill="none" stroke="#68bf4a" stroke-width="3" stroke-linecap="round" stroke-linejoin="round"></path><path d="M35,44.5c-5.2,0 -9.5,-4.3 -9.5,-9.5c0,-5.2 4.3,-9.5 9.5,-9.5c5.2,0 9.5,4.3 9.5,9.5c0,2.2 -0.8,4.2 -2,5.8" fill="none" stroke="#68bf4a" stroke-width="3" stroke-linecap="round" stroke-linejoin="round"></path><path d="M35,31v4" fill="none" stroke="#68bf4a" stroke-width="3" stroke-linecap="round" stroke-linejoin="round"></path><path d="M35,39v0" fill="none" stroke="#68bf4a" stroke-width="3" stroke-linecap="round" stroke-linejoin="round"></path></g></g></svg>