<svg xmlns="http://www.w3.org/2000/svg" xmlns:xlink="http://www.w3.org/1999/xlink" viewBox="0,0,256,256" width="100px" height="100px"><g fill="#ffffff" fill-rule="nonzero" stroke="none" stroke-width="1" stroke-linecap="butt" stroke-linejoin="miter" stroke-miterlimit="10" stroke-dasharray="" stroke-dashoffset="0" font-family="none" font-weight="none" font-size="none" text-anchor="none" style="mix-blend-mode: normal"><g transform="scale(5.12,5.12)"><path d="M47.8125,2.5c-0.33203,0 -0.625,0.26172 -0.625,0.59375c0,0.33203 0.29297,0.59375 0.625,0.59375c0.33203,0 0.59375,-0.26172 0.59375,-0.59375c0,-0.33203 -0.26172,-0.59375 -0.59375,-0.59375zM46.1875,2.6875c-0.33203,0 -0.59375,0.29297 -0.59375,0.625c0,0.33203 0.26172,0.59375 0.59375,0.59375c0.33203,0 0.625,-0.26172 0.625,-0.59375c0,-0.33203 -0.29297,-0.625 -0.625,-0.625zM44.59375,3c-0.33203,0 -0.59375,0.26172 -0.59375,0.59375c0,0.33203 0.26172,0.59375 0.59375,0.59375c0.33203,0 0.59375,-0.26172 0.59375,-0.59375c0,-0.33203 -0.26172,-0.59375 -0.59375,-0.59375zM43,3.3125c-0.33203,0 -0.59375,0.26172 -0.59375,0.59375c0,0.33203 0.26172,0.59375 0.59375,0.59375c0.33203,0 0.59375,-0.26172 0.59375,-0.59375c0,-0.33203 -0.26172,-0.59375 -0.59375,-0.59375zM41.3125,3.6875c-0.33203,0 -0.625,0.29297 -0.625,0.625c0,0.33203 0.29297,0.59375 0.625,0.59375c0.33203,0 0.59375,-0.26172 0.59375,-0.59375c0,-0.33203 -0.26172,-0.625 -0.59375,-0.625zM48,3.875c-0.03125,0.00781 -0.0625,0.01953 -0.09375,0.03125l-5.875,1.125c-0.01172,0 -0.01953,0 -0.03125,0c-0.75,0.14844 -1.34766,0.52734 -1.8125,0.875c-0.03516,0.02734 -0.06641,0.05859 -0.09375,0.09375l-16.0625,16.125c-0.1875,-0.80469 -0.58594,-1.61719 -1.3125,-2.34375c-1.05078,-1.05078 -2.48828,-1.57812 -3.9375,-1.59375c-1.44922,-0.01562 -2.91406,0.50781 -4.0625,1.59375c-0.01172,0 -0.01953,0 -0.03125,0c-1.26953,1.26953 -1.84766,2.79688 -1.96875,4.125c-0.01172,0.01172 -0.01953,0.01953 -0.03125,0.03125c-0.06641,1.05078 -0.96484,1.81641 -2.03125,1.75c-2.26562,-0.10937 -5.21094,0.33594 -7.46875,2.59375c0,0.01172 0,0.01953 0,0.03125c-2.11719,2.16797 -3.28516,4.92188 -3.1875,7.84375c0.09766,2.92188 1.44141,5.96094 4.1875,8.65625c2.74219,2.74219 5.78516,4.08594 8.6875,4.15625c2.90234,0.07031 5.60156,-1.13281 7.71875,-3.25c2.51563,-2.51562 2.61719,-5.07031 2.90625,-7.1875c0.09375,-0.77734 0.37109,-1.14453 0.84375,-1.5c0.47266,-0.35547 1.17578,-0.62109 1.96875,-0.9375c0.79297,-0.31641 1.66016,-0.68359 2.40625,-1.375c0.74609,-0.69141 1.28125,-1.77734 1.28125,-3.125c0,-0.4375 -0.19141,-0.97656 -0.5625,-1.28125c-0.37109,-0.30469 -0.76562,-0.34766 -1.09375,-0.375c-0.65234,-0.05078 -1.23828,0.03516 -1.8125,0.0625c-0.57422,0.02734 -1.08594,-0.00391 -1.40625,-0.15625c-0.23047,-0.10937 -0.40625,-0.25391 -0.5625,-0.59375l18.9375,-18.9375c0.28125,-0.28125 0.35938,-0.3125 0.59375,-0.3125c0.03125,0 0.0625,0 0.09375,0l1.09375,-0.09375c0.04297,-0.00781 0.08594,-0.01953 0.125,-0.03125c0.625,-0.125 1.32813,-0.39062 1.90625,-0.96875l2.40625,-2.40625c0.38672,-0.39062 0.38672,-1.01562 0,-1.40625l-0.90625,-0.90625c-0.1875,-0.19922 -0.44531,-0.30859 -0.71875,-0.3125c-0.03125,0 -0.0625,0 -0.09375,0zM47.34375,6.0625l-1.4375,1.4375c-0.22266,0.22266 -0.53125,0.33203 -0.90625,0.40625l-0.90625,0.09375h-0.09375v0.03125c-0.72656,0.03125 -1.41016,0.37891 -1.90625,0.875l-19.25,19.25c-0.11328,0.07422 -0.20703,0.16797 -0.28125,0.28125l-1.15625,1.15625l-1,-1l21,-21.09375c0.32813,-0.24609 0.71875,-0.47656 0.96875,-0.53125h0.03125zM18.75,20.1875c0.94531,0.01563 1.88281,0.38281 2.53125,1.03125c0.97266,0.97266 1.01563,1.67188 0.84375,2.8125v0.03125l-3.84375,3.84375c-0.38672,0.39063 -0.38672,1.01563 0,1.40625l2.40625,2.40625c0.39063,0.38672 1.01563,0.38672 1.40625,0l1.03125,-1.03125c0.32031,0.43359 0.69531,0.76563 1.125,0.96875c0.82031,0.39453 1.67578,0.37891 2.375,0.34375c0.5625,-0.02734 0.94531,-0.05078 1.25,-0.0625c-0.07422,0.5625 -0.1875,1.02344 -0.5,1.3125c-0.39453,0.36328 -1.04297,0.66016 -1.8125,0.96875c-0.76953,0.30859 -1.64453,0.61719 -2.4375,1.21875c-0.78906,0.59375 -1.46094,1.55469 -1.625,2.8125c0,0.01172 0,0.01953 0,0.03125c-0.30469,2.26563 -0.23828,3.92578 -2.3125,6c-1.78516,1.78516 -3.95703,2.74219 -6.28125,2.6875c-2.32422,-0.05469 -4.85547,-1.10547 -7.3125,-3.5625c0,-0.01172 0,-0.01953 0,-0.03125c-2.45312,-2.40625 -3.51562,-4.92969 -3.59375,-7.28125c-0.07812,-2.33594 0.82813,-4.55078 2.59375,-6.375c0.01172,-0.01172 0.01953,-0.01953 0.03125,-0.03125c1.72656,-1.70312 3.99219,-2.08594 5.90625,-2c0.01172,0 0.01953,0 0.03125,0c2.10938,0.11328 3.97656,-1.47266 4.125,-3.59375c0,-0.01172 0,-0.01953 0,-0.03125c0.08594,-0.86719 0.48828,-1.92578 1.40625,-2.84375c0.75391,-0.71484 1.71094,-1.04687 2.65625,-1.03125zM15.15625,30.15625l-1.5,1.5l4.375,4.375l1.5,-1.46875zM10.96875,34.25l-1.5,1.46875l4.375,4.40625l1.5,-1.5zM18,41c-0.55078,0 -1,0.44922 -1,1c0,0.55078 0.44922,1 1,1c0.55078,0 1,-0.44922 1,-1c0,-0.55078 -0.44922,-1 -1,-1zM11,43c-0.55078,0 -1,0.44922 -1,1c0,0.55078 0.44922,1 1,1c0.55078,0 1,-0.44922 1,-1c0,-0.55078 -0.44922,-1 -1,-1zM15,43c-0.55078,0 -1,0.44922 -1,1c0,0.55078 0.44922,1 1,1c0.55078,0 1,-0.44922 1,-1c0,-0.55078 -0.44922,-1 -1,-1z"></path></g></g></svg>