<svg xmlns="http://www.w3.org/2000/svg" xmlns:xlink="http://www.w3.org/1999/xlink" viewBox="0,0,256,256" width="48px" height="48px"><g fill="none" fill-rule="nonzero" stroke="none" stroke-width="none" stroke-linecap="none" stroke-linejoin="none" stroke-miterlimit="none" stroke-dasharray="" stroke-dashoffset="0" font-family="none" font-weight="none" font-size="none" text-anchor="none" style="mix-blend-mode: normal"><g transform="scale(5.33333,5.33333)"><path d="M27.031,32.914h-15.062c-1.04,0 -1.883,-0.843 -1.883,-1.883v-15.062c0,-1.04 0.843,-1.883 1.883,-1.883h15.063c1.04,0 1.883,0.843 1.883,1.883v15.063c-0.001,1.039 -0.844,1.882 -1.884,1.882z" fill="#b2d0ff" stroke="none" stroke-width="1" stroke-linecap="butt" stroke-linejoin="miter" stroke-miterlimit="10"></path><path d="M30.5,34.5v-17c0,-1.105 0.895,-2 2,-2h6c1.2,0 2.3,0.7 2.7,1.8l3,6.6c0.2,0.4 0.3,0.8 0.3,1.2v6.4c0,1.657 -1.343,3 -3,3h-1" fill="none" stroke="#0a46a5" stroke-width="3" stroke-linecap="butt" stroke-linejoin="round" stroke-miterlimit="10"></path><path d="M34.447,23.5h9.053" fill="none" stroke="#0a46a5" stroke-width="3" stroke-linecap="round" stroke-linejoin="round" stroke-miterlimit="10"></path><path d="M36.5,30.5c-2.2,0 -4,1.8 -4,4c0,2.2 1.8,4 4,4c2.2,0 4,-1.8 4,-4c0,-2.2 -1.8,-4 -4,-4z" fill="none" stroke="#0a46a5" stroke-width="3" stroke-linecap="butt" stroke-linejoin="miter" stroke-miterlimit="20"></path><path d="M30.5,29.5h-27v5h4.5" fill="none" stroke="#0a46a5" stroke-width="3" stroke-linecap="round" stroke-linejoin="round" stroke-miterlimit="10"></path><path d="M16.681,34.5h15.819" fill="none" stroke="#0a46a5" stroke-width="3" stroke-linecap="round" stroke-linejoin="round" stroke-miterlimit="10"></path><path d="M12.5,30.5c-2.2,0 -4,1.8 -4,4c0,2.2 1.8,4 4,4c2.2,0 4,-1.8 4,-4c0,-2.2 -1.8,-4 -4,-4z" fill="none" stroke="#0a46a5" stroke-width="3" stroke-linecap="butt" stroke-linejoin="miter" stroke-miterlimit="20"></path><path d="M25.5,25.213v2.287c0,1.105 -0.895,2 -2,2h-16c-1.105,0 -2,-0.895 -2,-2v-7.649" fill="none" stroke="#0a46a5" stroke-width="3" stroke-linecap="round" stroke-linejoin="round" stroke-miterlimit="10"></path><path d="M5.5,13.532v-2.032c0,-1.105 0.895,-2 2,-2h16c1.105,0 2,0.895 2,2v8.904" fill="none" stroke="#0a46a5" stroke-width="3" stroke-linecap="round" stroke-linejoin="round" stroke-miterlimit="10"></path><path d="M17.5,15.5h-4c-0.552,0 -1,-0.448 -1,-1v-5h6v5c0,0.552 -0.448,1 -1,1z" fill="none" stroke="#0a46a5" stroke-width="3" stroke-linecap="round" stroke-linejoin="round" stroke-miterlimit="10"></path></g></g></svg>