<svg xmlns="http://www.w3.org/2000/svg" xmlns:xlink="http://www.w3.org/1999/xlink" viewBox="0,0,256,256" width="48px" height="48px"><g fill="none" fill-rule="nonzero" stroke="none" stroke-width="none" stroke-linecap="none" stroke-linejoin="none" stroke-miterlimit="none" stroke-dasharray="" stroke-dashoffset="0" font-family="none" font-weight="none" font-size="none" text-anchor="none" style="mix-blend-mode: normal"><g transform="scale(5.33333,5.33333)"><path d="M47.7,26.8l-3,-8c-0.4,-1.1 -1.5,-1.8 -2.7,-1.8h-8v-1.9c0,-1.7 -1.4,-3.1 -3.1,-3.1h-20.8c-1.7,0 -3.1,1.4 -3.1,3.1v21.8c0,1.7 1.4,3.1 3.1,3.1h1.3c0.2,2 2,3.6 4.1,3.6c2.1,0 3.8,-1.6 4.1,-3.6h16.9c0.2,2 2,3.6 4.1,3.6c2.1,0 3.8,-1.6 4.1,-3.6h0.4c1.7,0 3.1,-1.4 3.1,-3.1v-8.8c-0.2,-0.4 -0.3,-0.9 -0.5,-1.3z" fill="#b2d0ff" stroke="none" stroke-width="1" stroke-linecap="butt" stroke-linejoin="miter" stroke-miterlimit="10"></path><path d="M33.2,35.5h-16.7" fill="none" stroke="#0a46a5" stroke-width="3" stroke-linecap="round" stroke-linejoin="round" stroke-miterlimit="10"></path><path d="M3.5,22.4v-10.9c0,-1.7 1.3,-3 3,-3h21c1.7,0 3,1.3 3,3v19.2" fill="none" stroke="#0a46a5" stroke-width="3" stroke-linecap="round" stroke-linejoin="round" stroke-miterlimit="10"></path><path d="M8.5,35.5h-2c-1.7,0 -3,-1.3 -3,-3v-3.9" fill="none" stroke="#0a46a5" stroke-width="3" stroke-linecap="round" stroke-linejoin="round" stroke-miterlimit="10"></path><path d="M30.5,13.5h8c1.2,0 2.3,0.7 2.7,1.8l3,7.6c0.2,0.4 0.3,0.8 0.3,1.2v7.2" fill="none" stroke="#0a46a5" stroke-width="3" stroke-linecap="round" stroke-linejoin="round" stroke-miterlimit="10"></path><path d="M12.5,31.5c-2.2,0 -4,1.8 -4,4c0,2.2 1.8,4 4,4c2.2,0 4,-1.8 4,-4c0,-2.2 -1.8,-4 -4,-4z" fill="none" stroke="#0a46a5" stroke-width="3" stroke-linecap="butt" stroke-linejoin="miter" stroke-miterlimit="20"></path><path d="M35,23.5h8.5" fill="none" stroke="#0a46a5" stroke-width="3" stroke-linecap="round" stroke-linejoin="round" stroke-miterlimit="10"></path><path d="M12,20.9l3.6,3.6l6.4,-6.4" fill="none" stroke="#0a46a5" stroke-width="3" stroke-linecap="round" stroke-linejoin="round" stroke-miterlimit="10"></path><path d="M37.5,31.5c-2.2,0 -4,1.8 -4,4c0,2.2 1.8,4 4,4c2.2,0 4,-1.8 4,-4c0,-2.2 -1.8,-4 -4,-4z" fill="none" stroke="#0a46a5" stroke-width="3" stroke-linecap="butt" stroke-linejoin="miter" stroke-miterlimit="20"></path></g></g></svg>