<svg xmlns="http://www.w3.org/2000/svg" xmlns:xlink="http://www.w3.org/1999/xlink" viewBox="0,0,256,256" width="48px" height="48px"><g fill="none" fill-rule="nonzero" stroke="none" stroke-width="none" stroke-linecap="none" stroke-linejoin="none" stroke-miterlimit="10" stroke-dasharray="" stroke-dashoffset="0" font-family="none" font-weight="none" font-size="none" text-anchor="none" style="mix-blend-mode: normal"><g transform="scale(5.33333,5.33333)"><path d="M44.9,36h-24.8c-1.7,0 -3.1,-1.4 -3.1,-3.1v-16.8c0,-1.7 1.4,-3.1 3.1,-3.1h24.8c1.7,0 3.1,1.4 3.1,3.1v16.8c0,1.7 -1.4,3.1 -3.1,3.1z" fill="#f0ea99" stroke="none" stroke-width="1" stroke-linecap="butt" stroke-linejoin="miter"></path><path d="M3.5,32.2v-3.5c0,-0.8 0.2,-1.6 0.7,-2.2l2.1,-3.1c0.8,-1.2 2,-2.2 3.3,-2.6l2.8,-0.9" fill="none" stroke="#161400" stroke-width="3" stroke-linecap="round" stroke-linejoin="round"></path><path d="M18.6,9.5h-2.1c-2.2,0 -4,1.8 -4,4v14.9c0,0.3 0.1,0.7 0.2,1l8.7,-5.4c1.2,-0.8 2.8,-0.6 3.8,0.4v0c1.2,1.2 1.2,3.2 -0.1,4.4l-10.4,9.5c-1.5,1.3 -3.4,2.1 -5.4,2.1h-2.9c-1.7,0 -3,-1.3 -3,-3" fill="none" stroke="#161400" stroke-width="3" stroke-linecap="round" stroke-linejoin="round"></path><path d="M30.9,31.5h9.6c2.2,0 4,-1.8 4,-4v-14c0,-2.2 -1.8,-4 -4,-4h-16.7" fill="none" stroke="#161400" stroke-width="3" stroke-linecap="round" stroke-linejoin="round"></path><path d="M13,16.5h31" fill="none" stroke="#161400" stroke-width="3" stroke-linecap="butt" stroke-linejoin="round"></path></g></g></svg>