<svg xmlns="http://www.w3.org/2000/svg" xmlns:xlink="http://www.w3.org/1999/xlink" viewBox="0,0,256,256" width="48px" height="48px"><g fill="none" fill-rule="nonzero" stroke="none" stroke-width="none" stroke-linecap="none" stroke-linejoin="none" stroke-miterlimit="10" stroke-dasharray="" stroke-dashoffset="0" font-family="none" font-weight="none" font-size="none" text-anchor="none" style="mix-blend-mode: normal"><g transform="scale(5.33333,5.33333)"><path d="M36.4,30c2.1,-0.2 4.2,-1.1 5.8,-2.7c2.4,-2.4 3.3,-5.9 2.5,-9c-0.2,-0.8 -1.1,-1.1 -1.7,-0.5l-4.6,4.6c-1.2,1.2 -3,1.4 -4.3,0.5c-1.9,-1.2 -2.1,-3.8 -0.6,-5.3l4.7,-4.7c0.6,-0.6 0.3,-1.5 -0.5,-1.7c-3.1,-0.8 -6.6,0.1 -9,2.5c-2.7,2.7 -3.4,6.6 -2.2,10c-0.1,0.1 -0.2,0.2 -0.3,0.3l-6,-6c0.6,-0.9 0.3,-2.1 -0.7,-2.7l-5.4,-3.4c-0.4,-0.3 -0.9,-0.2 -1.2,0.1l-0.9,0.9c-0.3,0.3 -0.4,0.8 -0.1,1.2l3.4,5.4c0.6,1 1.8,1.2 2.7,0.7l6,6c-4.2,4.2 -10.4,10.4 -10.8,10.8c-1.8,1.8 -1.6,4.8 0.7,6.3c1.6,1.1 3.8,0.8 5.2,-0.6l8.8,-8.8c0.2,0.5 0.5,1 0.9,1.4l7.9,8c1.8,1.8 4.6,1.8 6.4,0c1.8,-1.8 1.8,-4.6 0,-6.4z" fill="#f0ea99" stroke="none" stroke-width="1" stroke-linecap="butt" stroke-linejoin="miter"></path><path d="M17.7,24.5c-3.9,3.9 -8.2,8.2 -8.5,8.5c-1.8,1.8 -1.6,4.8 0.7,6.3c1.6,1.1 3.8,0.8 5.2,-0.6l5.4,-5.4" fill="none" stroke="#161400" stroke-width="3" stroke-linecap="round" stroke-linejoin="round"></path><path d="M37.7,23.7c0.2,-0.1 0.3,-0.3 0.5,-0.5c2.4,-2.4 3.3,-5.9 2.5,-9c-0.2,-0.8 -1.1,-1.1 -1.7,-0.5l-4.6,4.6c-1.2,1.2 -3,1.4 -4.3,0.5c-1.9,-1.2 -2.1,-3.8 -0.6,-5.3l4.7,-4.5c0.6,-0.6 0.3,-1.5 -0.5,-1.7c-3.1,-0.8 -6.6,0.1 -9,2.5c-1.3,1.3 -2.1,2.9 -2.5,4.5" fill="none" stroke="#161400" stroke-width="3" stroke-linecap="round" stroke-linejoin="round"></path><path d="M28,34.5l-3.2,-3.2c-1.8,-1.8 -1.8,-4.7 0,-6.4v0c1.8,-1.8 4.7,-1.8 6.4,0l7.9,8c1.8,1.8 1.8,4.7 0,6.4c-1.8,1.8 -4.7,1.8 -6.4,0l-0.9,-0.9" fill="none" stroke="#161400" stroke-width="3" stroke-linecap="round" stroke-linejoin="round"></path><path d="M8.9,8.1l-0.8,0.8c-0.3,0.3 -0.4,0.8 -0.1,1.2l3.4,5.4c0.7,1.1 2.2,1.3 3.1,0.4l1.4,-1.4c0.9,-0.9 0.7,-2.4 -0.4,-3.1l-5.4,-3.4c-0.3,-0.3 -0.8,-0.3 -1.2,0.1z" fill="none" stroke="#161400" stroke-width="3" stroke-linecap="round" stroke-linejoin="round"></path><path d="M15.4,15.4l9.1,9.1" fill="none" stroke="#161400" stroke-width="3" stroke-linecap="round" stroke-linejoin="round"></path></g></g></svg>