<svg xmlns="http://www.w3.org/2000/svg" xmlns:xlink="http://www.w3.org/1999/xlink" viewBox="0,0,256,256" width="48px" height="48px"><g fill="none" fill-rule="nonzero" stroke="none" stroke-width="none" stroke-linecap="none" stroke-linejoin="none" stroke-miterlimit="10" stroke-dasharray="" stroke-dashoffset="0" font-family="none" font-weight="none" font-size="none" text-anchor="none" style="mix-blend-mode: normal"><g transform="scale(5.33333,5.33333)"><circle cx="28" cy="28" r="17.917" fill="#f0ea99" stroke="none" stroke-width="1" stroke-linecap="butt" stroke-linejoin="miter"></circle><path d="M19.869,5.963c1.328,-0.303 2.711,-0.463 4.131,-0.463c8.671,0 15.949,5.965 17.953,14.016" fill="none" stroke="#161400" stroke-width="3" stroke-linecap="round" stroke-linejoin="round"></path><path d="M27.456,42.178c-1.12,0.211 -2.275,0.322 -3.456,0.322c-10.217,0 -18.5,-8.283 -18.5,-18.5c0,-6.746 3.611,-12.649 9.006,-15.881" fill="none" stroke="#161400" stroke-width="3" stroke-linecap="round" stroke-linejoin="round"></path><path d="M24.5,13.5v11l-5,5" fill="none" stroke="#161400" stroke-width="3" stroke-linecap="round" stroke-linejoin="round"></path><path d="M26.129,31.602c1.879,-4.905 7.364,-7.352 12.27,-5.473c1.67,0.64 3.076,1.657 4.112,3.012" fill="none" stroke="#161400" stroke-width="3" stroke-linecap="round" stroke-linejoin="round"></path><path d="M44.493,35.525c-0.007,0.955 -0.262,1.934 -0.622,2.874c-1.879,4.905 -7.364,7.352 -12.27,5.473c-2.818,-1.079 -4.803,-3.396 -5.713,-6.019" fill="none" stroke="#161400" stroke-width="3" stroke-linecap="round" stroke-linejoin="round"></path><path d="M35.559,39.471h-1.341c-1.118,0 -2.124,-0.559 -2.459,-1.118c-0.335,-0.447 -0.224,-1.006 0.224,-1.341c0.447,-0.335 1.006,-0.224 1.229,0.224c0.112,0.112 0.447,0.335 0.894,0.335h1.341c0.447,0 0.894,-0.335 0.894,-0.894c0,-0.559 -0.447,-0.894 -0.894,-0.894h-1.006c-1.565,0 -2.794,-1.229 -2.794,-2.682c0,-1.453 1.453,-2.571 2.906,-2.571h1.006c1.453,0 2.235,1.006 2.235,1.229c0.224,0.447 0.112,1.006 -0.335,1.229c-0.447,0.223 -1.006,0.112 -1.229,-0.335c0,0 -0.224,-0.335 -0.671,-0.335h-1.006c-0.447,0 -0.894,0.335 -0.894,0.894c0,0.559 0.447,0.894 0.894,0.894h1.006c1.565,0 2.794,1.229 2.794,2.682c0,1.453 -1.229,2.683 -2.794,2.683z" fill="#161400" stroke="none" stroke-width="1" stroke-linecap="butt" stroke-linejoin="miter"></path><path d="M35,29.971v1.341" fill="none" stroke="#161400" stroke-width="2" stroke-linecap="round" stroke-linejoin="miter"></path><path d="M35,40.029v-1.341" fill="none" stroke="#161400" stroke-width="2" stroke-linecap="round" stroke-linejoin="miter"></path></g></g></svg>