<svg xmlns="http://www.w3.org/2000/svg" xmlns:xlink="http://www.w3.org/1999/xlink" viewBox="0,0,256,256" width="100px" height="100px"><g fill="#ffffff" fill-rule="nonzero" stroke="none" stroke-width="1" stroke-linecap="butt" stroke-linejoin="miter" stroke-miterlimit="10" stroke-dasharray="" stroke-dashoffset="0" font-family="none" font-weight="none" font-size="none" text-anchor="none" style="mix-blend-mode: normal"><g transform="scale(5.12,5.12)"><path d="M25,2c-0.05176,0.00121 -0.10335,0.00643 -0.1543,0.01563c-12.61863,0.08534 -22.8457,10.34585 -22.8457,22.98438c0,12.69137 10.30863,23 23,23c12.69137,0 23,-10.30863 23,-23c0,-12.6372 -10.22499,-22.89691 -22.8418,-22.98437c-0.05224,-0.0094 -0.10514,-0.01462 -0.1582,-0.01562zM25,4c11.61063,0 21,9.38937 21,21c0,11.61063 -9.38937,21 -21,21c-11.61063,0 -21,-9.38937 -21,-21c0,-11.61063 9.38937,-21 21,-21zM17,18c-1.65685,0 -3,1.34315 -3,3c0,1.65685 1.34315,3 3,3c1.65685,0 3,-1.34315 3,-3c0,-1.65685 -1.34315,-3 -3,-3zM33,18c-1.65685,0 -3,1.34315 -3,3c0,1.65685 1.34315,3 3,3c1.65685,0 3,-1.34315 3,-3c0,-1.65685 -1.34315,-3 -3,-3zM11.95703,28.98828c-0.37136,0.01225 -0.70532,0.22937 -0.86722,0.56381c-0.16189,0.33444 -0.12503,0.73107 0.09573,1.02994c0,0 5.23112,7.41797 13.81445,7.41797c8.58333,0 13.81445,-7.41797 13.81445,-7.41797c0.32145,-0.44981 0.21739,-1.07504 -0.23242,-1.39648c-0.44981,-0.32145 -1.07504,-0.21739 -1.39648,0.23242c0,0 -4.76888,6.58203 -12.18555,6.58203c-7.41667,0 -12.18555,-6.58203 -12.18555,-6.58203c-0.19401,-0.27987 -0.5171,-0.44178 -0.85742,-0.42969z"></path></g></g></svg>