<svg xmlns="http://www.w3.org/2000/svg" xmlns:xlink="http://www.w3.org/1999/xlink" viewBox="0,0,256,256" width="48px" height="48px"><g fill="none" fill-rule="nonzero" stroke="none" stroke-width="none" stroke-linecap="none" stroke-linejoin="none" stroke-miterlimit="10" stroke-dasharray="" stroke-dashoffset="0" font-family="none" font-weight="none" font-size="none" text-anchor="none" style="mix-blend-mode: normal"><g transform="scale(5.33333,5.33333)"><path d="M32.9,32.4c-1.9,0 -3.3,-0.6 -4,-2.7v-0.2l19.1,-19l-1.4,-1.4c-1.6,0 -2.5,0 -4.1,0l-14.3,14.4v-0.2c-1.4,-4.1 -5.4,-4.5 -7.7,-1.7c-1.3,1.5 -1.2,3.8 -1.8,4.9c-1.1,1.7 -2.8,2 -4,1.9c-2.2,-0.1 -4.2,0.5 -5.7,2c-3.4,3.4 -2.6,9.5 1.6,13.8c4.2,4.3 10.4,5 13.8,1.6c1.5,-1.5 1.9,-3.5 2.1,-5.7c0.2,-1.8 0.9,-3.6 2.4,-3.6c2,0 3.9,-0.2 5.3,-1.6c1.3,-1.3 0.7,-2.5 -1.3,-2.5z" fill="#f0ea99" stroke="none" stroke-width="1" stroke-linecap="butt" stroke-linejoin="miter"></path><path d="M13.1,38.4l-3.5,-3.5c-0.6,-0.6 -0.6,-1.5 0,-2.1v0c0.6,-0.6 1.5,-0.6 2.1,0l3.5,3.5c0.6,0.6 0.6,1.5 0,2.1v0c-0.6,0.6 -1.6,0.6 -2.1,0z" fill="#161400" stroke="none" stroke-width="1" stroke-linecap="butt" stroke-linejoin="miter"></path><path d="M16.9,34.4l-3.5,-3.5c-0.6,-0.6 -0.6,-1.5 0,-2.1v0c0.6,-0.6 1.5,-0.6 2.1,0l3.5,3.5c0.6,0.6 0.6,1.5 0,2.1v0c-0.5,0.6 -1.5,0.6 -2.1,0z" fill="#161400" stroke="none" stroke-width="1" stroke-linecap="butt" stroke-linejoin="miter"></path><path d="M17.5,44.7c1.2,-0.3 2.4,-1 3.3,-1.9c1.5,-1.5 1.9,-3.6 2.2,-5.9c0.2,-1.8 0.9,-3.7 2.5,-3.7c2.1,0 4,-0.2 5.4,-1.6c1.4,-1.4 0.8,-2.6 -1.2,-2.6c-2,0 -3.4,-0.7 -4.1,-2.7" fill="none" stroke="#161400" stroke-width="3" stroke-linecap="round" stroke-linejoin="miter"></path><path d="M20.7,16.1c-1.4,-0.1 -2.8,0.5 -3.9,1.8c-1.3,1.6 -1.2,3.9 -1.9,5c-1.1,1.8 -2.9,2 -4.1,2c-2.2,-0.1 -4.3,0.5 -5.8,2c-3.4,3.5 -2.7,9.8 1.7,14.2c1.7,1.7 3.8,2.9 5.9,3.5" fill="none" stroke="#161400" stroke-width="3" stroke-linecap="round" stroke-linejoin="miter"></path><path d="M31,20.7l-8.3,8.3l-3.5,-3.5l20.3,-20.4c1.7,0 2.6,0 4.2,0l1.4,1.4l-10,10" fill="none" stroke="#161400" stroke-width="3" stroke-linecap="round" stroke-linejoin="round"></path><path d="M37.9,3.2l1.3,1.5" fill="none" stroke="#161400" stroke-width="3" stroke-linecap="round" stroke-linejoin="round"></path><path d="M37.2,9.6l1.3,1.4" fill="none" stroke="#161400" stroke-width="3" stroke-linecap="round" stroke-linejoin="round"></path><path d="M34.3,6.8l1.4,1.4" fill="none" stroke="#161400" stroke-width="3" stroke-linecap="round" stroke-linejoin="round"></path></g></g></svg>