<svg id="visual" viewBox="0 0 900 450" width="900" height="450" xmlns="http://www.w3.org/2000/svg" xmlns:xlink="http://www.w3.org/1999/xlink" version="1.1"><path d="M639 450L584 450L584 409L602 409L602 368L570 368L570 327L662 327L662 286L665 286L665 245L612 245L612 205L623 205L623 164L641 164L641 123L546 123L546 82L610 82L610 41L638 41L638 0L900 0L900 41L900 41L900 82L900 82L900 123L900 123L900 164L900 164L900 205L900 205L900 245L900 245L900 286L900 286L900 327L900 327L900 368L900 368L900 409L900 409L900 450L900 450Z" fill="#69bf4a"></path><path d="M644 450L753 450L753 409L685 409L685 368L640 368L640 327L698 327L698 286L690 286L690 245L731 245L731 205L676 205L676 164L667 164L667 123L720 123L720 82L687 82L687 41L742 41L742 0L900 0L900 41L900 41L900 82L900 82L900 123L900 123L900 164L900 164L900 205L900 205L900 245L900 245L900 286L900 286L900 327L900 327L900 368L900 368L900 409L900 409L900 450L900 450Z" fill="#0092b3"></path><path d="M805 450L783 450L783 409L802 409L802 368L768 368L768 327L753 327L753 286L765 286L765 245L817 245L817 205L827 205L827 164L751 164L751 123L784 123L784 82L813 82L813 41L752 41L752 0L900 0L900 41L900 41L900 82L900 82L900 123L900 123L900 164L900 164L900 205L900 205L900 245L900 245L900 286L900 286L900 327L900 327L900 368L900 368L900 409L900 409L900 450L900 450Z" fill="#0a46a5"></path></svg>