<svg id="visual" viewBox="0 0 900 600" width="900" height="600" xmlns="http://www.w3.org/2000/svg" xmlns:xlink="http://www.w3.org/1999/xlink" version="1.1"><rect width="900" height="600" fill="#fffbe5"></rect><g><g transform="translate(740 58)"><path d="M0 -211.3L183 -105.6L183 105.6L0 211.3L-183 105.6L-183 -105.6Z" fill="none" stroke="#ffdd00" stroke-width="2"></path></g><g transform="translate(306 34)"><path d="M0 -110L95.3 -55L95.3 55L0 110L-95.3 55L-95.3 -55Z" fill="none" stroke="#ffdd00" stroke-width="2"></path></g><g transform="translate(127 476)"><path d="M0 -145L125.6 -72.5L125.6 72.5L0 145L-125.6 72.5L-125.6 -72.5Z" fill="none" stroke="#ffdd00" stroke-width="2"></path></g><g transform="translate(612 485)"><path d="M0 -178L154.2 -89L154.2 89L0 178L-154.2 89L-154.2 -89Z" stroke="#ffdd00" fill="none" stroke-width="2"></path></g></g></svg>