<svg id="visual" viewBox="0 0 900 600" width="900" height="600" xmlns="http://www.w3.org/2000/svg" xmlns:xlink="http://www.w3.org/1999/xlink" version="1.1"><rect width="900" height="600" fill="#fffdf0"></rect><g><g transform="translate(17 525)"><path d="M0 -205.4L132 -157.4L202.3 -35.7L177.9 102.7L70.3 193L-70.3 193L-177.9 102.7L-202.3 -35.7L-132 -157.4Z" fill="none" stroke="#ffdd00" stroke-width="2"></path></g><g transform="translate(703 540)"><path d="M0 -49L31.5 -37.5L48.3 -8.5L42.4 24.5L16.8 46L-16.8 46L-42.4 24.5L-48.3 -8.5L-31.5 -37.5Z" fill="none" stroke="#ffdd00" stroke-width="2"></path></g><g transform="translate(888 172)"><path d="M0 -118L75.8 -90.4L116.2 -20.5L102.2 59L40.4 110.9L-40.4 110.9L-102.2 59L-116.2 -20.5L-75.8 -90.4Z" stroke="#ffdd00" fill="none" stroke-width="2"></path></g><g transform="translate(347 67)"><path d="M0 -41L26.4 -31.4L40.4 -7.1L35.5 20.5L14 38.5L-14 38.5L-35.5 20.5L-40.4 -7.1L-26.4 -31.4Z" stroke="#ffdd00" fill="none" stroke-width="2"></path></g></g></svg>